<svg width="644.52001953125px" height="412.7599853515625px" xmlns="http://www.w3.org/2000/svg" viewBox="-72.260009765625 -131.37999267578124 644.52001953125 412.7599853515625" style="background: rgba(0, 0, 0, 0) none repeat scroll 0% 0%;" preserveAspectRatio="xMidYMid"><defs><filter id="editing-extrusion" x="-100%" y="-100%" width="300%" height="300%"><feFlood result="color1" flood-color="#ffdf00"></feFlood><feConvolveMatrix order="4,4" divisor="1" kernelMatrix="1 0 0 0 0 1 0 0 0 0 1 0 0 0 0 1" in="SourceAlpha" result="extrude"></feConvolveMatrix><feComposite in="color1" in2="extrude" result="comp-extrude" operator="in"></feComposite><feOffset dx="2" dy="2" in="comp-extrude" result="offset-extrude"></feOffset><feMerge><feMergeNode in="offset-extrude"></feMergeNode><feMergeNode in="SourceGraphic"></feMergeNode></feMerge></filter></defs><g filter="url(#editing-extrusion)"><g transform="translate(21.1894474029541, 141.01953125)"><path d="M14.84-7.42L7.42-97.46L7.42-97.46Q7.03-97.85 6.45-98.83L6.45-98.83L6.45-98.83Q5.86-99.80 5.27-101.07L5.27-101.07L5.27-101.07Q4.69-102.34 4.20-103.42L4.20-103.42L4.20-103.42Q3.71-104.49 3.71-105.08L3.71-105.08L3.71-105.08Q3.71-106.84 5.27-107.81L5.27-107.81L5.27-107.81Q6.84-108.79 8.79-108.98L8.79-108.98L8.79-108.98Q10.74-109.18 12.60-109.18L12.60-109.18L12.60-109.18Q14.45-109.18 14.84-109.18L14.84-109.18L14.84-109.18Q15.43-109.18 16.50-109.08L16.50-109.08L16.50-109.08Q17.58-108.98 18.85-108.89L18.85-108.89L18.85-108.89Q20.12-108.79 21.09-108.69L21.09-108.69L21.09-108.69Q22.07-108.59 22.46-108.59L22.46-108.59L22.46-108.59Q28.91-106.25 37.21-103.13L37.21-103.13L37.21-103.13Q45.51-100 54.30-95.90L54.30-95.90L54.30-95.90Q63.09-91.80 71.48-86.62L71.48-86.62L71.48-86.62Q79.88-81.45 86.52-74.90L86.52-74.90L86.52-74.90Q93.16-68.36 97.27-60.55L97.27-60.55L97.27-60.55Q101.37-52.73 101.37-43.16L101.37-43.16L101.37-43.16Q101.37-34.96 98.24-28.42L98.24-28.42L98.24-28.42Q95.12-21.88 89.94-17.09L89.94-17.09L89.94-17.09Q84.77-12.30 77.93-8.89L77.93-8.89L77.93-8.89Q71.09-5.47 63.96-3.42L63.96-3.42L63.96-3.42Q56.84-1.37 49.61-0.39L49.61-0.39L49.61-0.39Q42.38 0.59 36.13 0.59L36.13 0.59L36.13 0.59Q34.77 0.59 31.45 0.49L31.45 0.49L31.45 0.49Q28.13 0.39 24.61 0.20L24.61 0.20L24.61 0.20Q21.09 0 18.26-0.10L18.26-0.10L18.26-0.10Q15.43-0.20 15.23-0.20L15.23-0.20L14.84-7.42ZM18.55-98.44L18.55-98.44L18.55-98.44Q18.55-98.05 18.55-96.88L18.55-96.88L18.55-96.88Q18.55-95.70 18.65-94.24L18.65-94.24L18.65-94.24Q18.75-92.77 18.75-91.60L18.75-91.60L18.75-91.60Q18.75-90.43 18.75-89.84L18.75-89.84L18.75-89.84Q18.95-86.91 19.24-80.47L19.24-80.47L19.24-80.47Q19.53-74.02 19.82-65.82L19.82-65.82L19.82-65.82Q20.12-57.62 20.61-48.73L20.61-48.73L20.61-48.73Q21.09-39.84 21.48-31.74L21.48-31.74L21.48-31.74Q21.88-23.63 22.17-17.09L22.17-17.09L22.17-17.09Q22.46-10.55 22.46-7.42L22.46-7.42L22.46-7.42Q23.63-7.42 26.27-7.32L26.27-7.32L26.27-7.32Q28.91-7.23 31.84-7.13L31.84-7.13L31.84-7.13Q34.77-7.03 37.40-6.93L37.40-6.93L37.40-6.93Q40.04-6.84 41.21-6.84L41.21-6.84L41.21-6.84Q50.20-6.84 58.98-9.08L58.98-9.08L58.98-9.08Q67.77-11.33 74.71-15.92L74.71-15.92L74.71-15.92Q81.64-20.51 86.04-27.83L86.04-27.83L86.04-27.83Q90.43-35.16 90.43-45.51L90.43-45.51L90.43-45.51Q90.43-53.13 86.91-60.06L86.91-60.06L86.91-60.06Q83.40-66.99 77.64-72.85L77.64-72.85L77.64-72.85Q71.88-78.71 64.45-83.40L64.45-83.40L64.45-83.40Q57.03-88.09 49.12-91.50L49.12-91.50L49.12-91.50Q41.21-94.92 33.30-96.68L33.30-96.68L33.30-96.68Q25.39-98.44 18.55-98.44ZM115.43-14.84L115.43-14.84L115.43-14.84Q116.41-17.19 118.46-17.77L118.46-17.77L118.46-17.77Q120.51-18.36 122.85-14.84L122.85-14.84L122.85-14.84Q122.85-14.45 124.71-13.77L124.71-13.77L124.71-13.77Q126.56-13.09 129.39-12.21L129.39-12.21L129.39-12.21Q132.23-11.33 136.04-10.45L136.04-10.45L136.04-10.45Q139.84-9.57 143.55-8.89L143.55-8.89L143.55-8.89Q147.27-8.20 150.78-7.71L150.78-7.71L150.78-7.71Q154.30-7.23 156.84-7.23L156.84-7.23L156.84-7.23Q163.48-7.23 169.04-10.06L169.04-10.06L169.04-10.06Q174.61-12.89 178.61-17.38L178.61-17.38L178.61-17.38Q182.62-21.88 184.77-27.64L184.77-27.64L184.77-27.64Q186.91-33.40 186.91-39.45L186.91-39.45L186.91-39.45Q186.91-41.21 186.33-45.61L186.33-45.61L186.33-45.61Q185.74-50 184.38-54.39L184.38-54.39L184.38-54.39Q183.01-58.79 180.76-62.30L180.76-62.30L180.76-62.30Q178.52-65.82 175.39-65.82L175.39-65.82L175.39-65.82Q155.08-63.48 142.09-63.96L142.09-63.96L142.09-63.96Q129.10-64.45 121.48-66.99L121.48-66.99L121.48-66.99Q113.87-69.53 110.84-73.93L110.84-73.93L110.84-73.93Q107.81-78.32 107.62-83.98L107.62-83.98L107.62-83.98Q107.62-91.02 111.13-97.56L111.13-97.56L111.13-97.56Q114.65-104.10 120.12-109.18L120.12-109.18L120.12-109.18Q125.59-114.26 132.32-117.29L132.32-117.29L132.32-117.29Q139.06-120.31 145.70-120.31L145.70-120.31L145.70-120.31Q151.17-120.31 157.13-118.95L157.13-118.95L157.13-118.95Q163.09-117.58 168.16-114.75L168.16-114.75L168.16-114.75Q173.24-111.91 176.46-107.32L176.46-107.32L176.46-107.32Q179.69-102.73 179.69-96.29L179.69-96.29L179.69-96.29Q175-96.29 171.09-98.93L171.09-98.93L171.09-98.93Q167.19-101.56 163.28-104.49L163.28-104.49L163.28-104.49Q159.38-107.42 155.08-110.06L155.08-110.06L155.08-110.06Q150.78-112.70 145.12-112.70L145.12-112.70L145.12-112.70Q140.43-112.70 135.64-110.35L135.64-110.35L135.64-110.35Q130.86-108.01 127.05-104.30L127.05-104.30L127.05-104.30Q123.24-100.59 120.80-96.00L120.80-96.00L120.80-96.00Q118.36-91.41 118.36-86.52L118.36-86.52L118.36-86.52Q118.36-84.57 118.46-82.32L118.46-82.32L118.46-82.32Q118.55-80.08 119.34-78.03L119.34-78.03L119.34-78.03Q120.12-75.98 121.78-74.61L121.78-74.61L121.78-74.61Q123.44-73.24 126.56-73.24L126.56-73.24L179.10-73.24L179.10-73.24Q182.42-73.24 184.86-71.19L184.86-71.19L184.86-71.19Q187.30-69.14 188.96-66.02L188.96-66.02L188.96-66.02Q190.63-62.89 191.70-58.98L191.70-58.98L191.70-58.98Q192.77-55.08 193.46-51.37L193.46-51.37L193.46-51.37Q194.14-47.66 194.34-44.43L194.34-44.43L194.34-44.43Q194.53-41.21 194.53-39.45L194.53-39.45L194.53-39.45Q194.53-31.84 192.38-25.10L192.38-25.10L192.38-25.10Q190.23-18.36 185.94-12.99L185.94-12.99L185.94-12.99Q181.64-7.62 175.20-4.20L175.20-4.20L175.20-4.20Q168.75-0.78 160.35 0L160.35 0L160.35 0Q156.25 0.39 149.71-0.20L149.71-0.20L149.71-0.20Q143.16-0.78 136.52-2.44L136.52-2.44L136.52-2.44Q129.88-4.10 124.02-7.13L124.02-7.13L124.02-7.13Q118.16-10.16 115.43-14.84ZM204.49-107.42L204.49-107.42L204.49-107.42Q204.49-113.67 209.28-118.26L209.28-118.26L209.28-118.26Q214.06-122.85 220.90-125.68L220.90-125.68L220.90-125.68Q227.73-128.52 235.16-129.98L235.16-129.98L235.16-129.98Q242.58-131.45 247.85-131.45L247.85-131.45L247.85-131.45Q253.13-131.45 258.50-129.69L258.50-129.69L258.50-129.69Q263.87-127.93 267.97-124.71L267.97-124.71L267.97-124.71Q272.07-121.48 274.32-116.50L274.32-116.50L274.32-116.50Q276.56-111.52 275.78-105.08L275.78-105.08L275.78-105.08Q274.80-95.12 269.24-87.50L269.24-87.50L269.24-87.50Q263.67-79.88 255.57-74.71L255.57-74.71L255.57-74.71Q247.46-69.53 237.99-66.89L237.99-66.89L237.99-66.89Q228.52-64.26 219.73-64.26L219.73-64.26L219.73-64.26Q219.73-57.03 220.31-49.90L220.31-49.90L220.31-49.90Q220.90-42.77 221.58-35.55L221.58-35.55L221.58-35.55Q222.27-28.32 222.85-21.19L222.85-21.19L222.85-21.19Q223.44-14.06 223.44-6.84L223.44-6.84L223.44-6.84Q223.44-4.69 223.05-2.83L223.05-2.83L223.05-2.83Q222.66-0.98 219.53 0L219.53 0L215.63-3.71L215.63-3.71Q215.63-3.91 215.04-9.18L215.04-9.18L215.04-9.18Q214.45-14.45 213.38-22.85L213.38-22.85L213.38-22.85Q212.30-31.25 211.04-41.89L211.04-41.89L211.04-41.89Q209.77-52.54 208.59-63.28L208.59-63.28L208.59-63.28Q207.42-74.02 206.35-83.98L206.35-83.98L206.35-83.98Q205.27-93.95 204.49-101.17L204.49-101.17L204.49-101.17Q204.49-101.37 204.49-102.15L204.49-102.15L204.49-102.15Q204.49-102.93 204.49-103.91L204.49-103.91L204.49-103.91Q204.49-104.88 204.49-105.86L204.49-105.86L204.49-105.86Q204.49-106.84 204.49-107.42ZM215.43-100.39L215.43-100.39L215.43-100.39Q215.43-96.29 215.53-92.77L215.53-92.77L215.53-92.77Q215.63-89.26 216.11-85.94L216.11-85.94L216.11-85.94Q216.60-82.62 217.38-79.10L217.38-79.10L217.38-79.10Q218.16-75.59 219.53-71.09L219.53-71.09L219.53-71.09Q225.59-72.07 233.98-74.80L233.98-74.80L233.98-74.80Q242.38-77.54 250.10-82.23L250.10-82.23L250.10-82.23Q257.81-86.91 263.09-93.07L263.09-93.07L263.09-93.07Q268.36-99.22 268.36-106.84L268.36-106.84L268.36-106.84Q268.36-110.94 266.41-114.16L266.41-114.16L266.41-114.16Q264.45-117.38 261.43-119.53L261.43-119.53L261.43-119.53Q258.40-121.68 254.69-122.85L254.69-122.85L254.69-122.85Q250.98-124.02 247.46-124.02L247.46-124.02L247.46-124.02Q241.80-124.02 236.04-122.66L236.04-122.66L236.04-122.66Q230.27-121.29 225.68-118.36L225.68-118.36L225.68-118.36Q221.09-115.43 218.26-110.94L218.26-110.94L218.26-110.94Q215.43-106.45 215.43-100.39ZM286.91-14.84L286.91-14.84L286.91-14.84Q287.89-17.19 289.94-17.77L289.94-17.77L289.94-17.77Q291.99-18.36 294.34-14.84L294.34-14.84L294.34-14.84Q294.34-14.45 296.19-13.77L296.19-13.77L296.19-13.77Q298.05-13.09 300.88-12.21L300.88-12.21L300.88-12.21Q303.71-11.33 307.52-10.45L307.52-10.45L307.52-10.45Q311.33-9.57 315.04-8.89L315.04-8.89L315.04-8.89Q318.75-8.20 322.27-7.71L322.27-7.71L322.27-7.71Q325.78-7.23 328.32-7.23L328.32-7.23L328.32-7.23Q334.96-7.23 340.53-10.06L340.53-10.06L340.53-10.06Q346.09-12.89 350.10-17.38L350.10-17.38L350.10-17.38Q354.10-21.88 356.25-27.64L356.25-27.64L356.25-27.64Q358.40-33.40 358.40-39.45L358.40-39.45L358.40-39.45Q358.40-41.21 357.81-45.61L357.81-45.61L357.81-45.61Q357.23-50 355.86-54.39L355.86-54.39L355.86-54.39Q354.49-58.79 352.25-62.30L352.25-62.30L352.25-62.30Q350-65.82 346.88-65.82L346.88-65.82L346.88-65.82Q326.56-63.48 313.57-63.96L313.57-63.96L313.57-63.96Q300.59-64.45 292.97-66.99L292.97-66.99L292.97-66.99Q285.35-69.53 282.32-73.93L282.32-73.93L282.32-73.93Q279.30-78.32 279.10-83.98L279.10-83.98L279.10-83.98Q279.10-91.02 282.62-97.56L282.62-97.56L282.62-97.56Q286.13-104.10 291.60-109.18L291.60-109.18L291.60-109.18Q297.07-114.26 303.81-117.29L303.81-117.29L303.81-117.29Q310.55-120.31 317.19-120.31L317.19-120.31L317.19-120.31Q322.66-120.31 328.61-118.95L328.61-118.95L328.61-118.95Q334.57-117.58 339.65-114.75L339.65-114.75L339.65-114.75Q344.73-111.91 347.95-107.32L347.95-107.32L347.95-107.32Q351.17-102.73 351.17-96.29L351.17-96.29L351.17-96.29Q346.48-96.29 342.58-98.93L342.58-98.93L342.58-98.93Q338.67-101.56 334.77-104.49L334.77-104.49L334.77-104.49Q330.86-107.42 326.56-110.06L326.56-110.06L326.56-110.06Q322.27-112.70 316.60-112.70L316.60-112.70L316.60-112.70Q311.91-112.70 307.13-110.35L307.13-110.35L307.13-110.35Q302.34-108.01 298.54-104.30L298.54-104.30L298.54-104.30Q294.73-100.59 292.29-96.00L292.29-96.00L292.29-96.00Q289.84-91.41 289.84-86.52L289.84-86.52L289.84-86.52Q289.84-84.57 289.94-82.32L289.94-82.32L289.94-82.32Q290.04-80.08 290.82-78.03L290.82-78.03L290.82-78.03Q291.60-75.98 293.26-74.61L293.26-74.61L293.26-74.61Q294.92-73.24 298.05-73.24L298.05-73.24L350.59-73.24L350.59-73.24Q353.91-73.24 356.35-71.19L356.35-71.19L356.35-71.19Q358.79-69.14 360.45-66.02L360.45-66.02L360.45-66.02Q362.11-62.89 363.18-58.98L363.18-58.98L363.18-58.98Q364.26-55.08 364.94-51.37L364.94-51.37L364.94-51.37Q365.63-47.66 365.82-44.43L365.82-44.43L365.82-44.43Q366.02-41.21 366.02-39.45L366.02-39.45L366.02-39.45Q366.02-31.84 363.87-25.10L363.87-25.10L363.87-25.10Q361.72-18.36 357.42-12.99L357.42-12.99L357.42-12.99Q353.13-7.62 346.68-4.20L346.68-4.20L346.68-4.20Q340.23-0.78 331.84 0L331.84 0L331.84 0Q327.73 0.39 321.19-0.20L321.19-0.20L321.19-0.20Q314.65-0.78 308.01-2.44L308.01-2.44L308.01-2.44Q301.37-4.10 295.51-7.13L295.51-7.13L295.51-7.13Q289.65-10.16 286.91-14.84ZM374.80-50.59L374.80-50.59L374.80-50.59Q374.80-56.64 376.07-64.16L376.07-64.16L376.07-64.16Q377.34-71.68 379.88-79.39L379.88-79.39L379.88-79.39Q382.42-87.11 386.23-94.43L386.23-94.43L386.23-94.43Q390.04-101.76 395.02-107.52L395.02-107.52L395.02-107.52Q400-113.28 406.35-116.80L406.35-116.80L406.35-116.80Q412.70-120.31 420.31-120.31L420.31-120.31L420.31-120.31Q425.78-120.31 429.59-118.16L429.59-118.16L429.59-118.16Q433.40-116.02 435.74-112.50L435.74-112.50L435.74-112.50Q438.09-108.98 439.16-104.59L439.16-104.59L439.16-104.59Q440.23-100.20 440.23-95.70L440.23-95.70L440.23-95.70Q435.94-95.70 433.79-98.34L433.79-98.34L433.79-98.34Q431.64-100.98 429.79-104.20L429.79-104.20L429.79-104.20Q427.93-107.42 425.49-110.06L425.49-110.06L425.49-110.06Q423.05-112.70 418.16-112.70L418.16-112.70L418.16-112.70Q411.72-112.70 406.74-109.18L406.74-109.18L406.74-109.18Q401.76-105.66 398.05-100.10L398.05-100.10L398.05-100.10Q394.34-94.53 391.89-87.50L391.89-87.50L391.89-87.50Q389.45-80.47 387.99-73.44L387.99-73.44L387.99-73.44Q386.52-66.41 385.94-59.86L385.94-59.86L385.94-59.86Q385.35-53.32 385.35-48.83L385.35-48.83L385.35-48.83Q384.57-42.19 385.25-35.06L385.25-35.06L385.25-35.06Q385.94-27.93 388.48-21.97L388.48-21.97L388.48-21.97Q391.02-16.02 395.90-12.01L395.90-12.01L395.90-12.01Q400.78-8.01 408.79-7.42L408.79-7.42L408.79-7.42Q413.87-7.42 420.12-9.08L420.12-9.08L420.12-9.08Q426.37-10.74 432.52-12.99L432.52-12.99L432.52-12.99Q438.67-15.23 444.34-17.87L444.34-17.87L444.34-17.87Q450-20.51 453.91-22.46L453.91-22.46L453.91-14.84L453.91-14.84Q453.71-14.84 451.46-13.96L451.46-13.96L451.46-13.96Q449.22-13.09 445.61-11.72L445.61-11.72L445.61-11.72Q441.99-10.35 437.40-8.79L437.40-8.79L437.40-8.79Q432.81-7.23 428.32-5.57L428.32-5.57L428.32-5.57Q423.83-3.91 419.63-2.44L419.63-2.44L419.63-2.44Q415.43-0.98 412.50 0L412.50 0L412.50 0Q412.30 0 411.72 0.10L411.72 0.10L411.72 0.10Q411.13 0.20 410.74 0.20L410.74 0.20L410.74 0.20Q400 0.20 393.07-4.39L393.07-4.39L393.07-4.39Q386.13-8.98 382.03-16.31L382.03-16.31L382.03-16.31Q377.93-23.63 376.37-32.71L376.37-32.71L376.37-32.71Q374.80-41.80 374.80-50.59Z" fill="#0115ff"></path></g></g><style>text {
  font-size: 64px;
  font-family: Arial Black;
  dominant-baseline: central;
  text-anchor: middle;
}</style></svg>